<svg width="614" height="614" viewBox="0 0 614 614" fill="none" xmlns="http://www.w3.org/2000/svg">
<path d="M341.111 170.556C341.111 264.751 264.751 341.111 170.556 341.111C76.3603 341.111 0 264.751 0 170.556C0 76.3603 76.3603 0 170.556 0C264.751 0 341.111 76.3603 341.111 170.556Z" fill="white"/>
<path d="M494.611 0C560.548 0 614 53.4522 614 119.389V426.291C614 426.345 613.956 426.389 613.903 426.389C613.847 426.389 613.803 426.435 613.805 426.491C613.935 429.283 614 432.092 614 434.917C614 533.822 533.822 614 434.917 614C432.092 614 429.283 613.935 426.491 613.805C426.435 613.803 426.389 613.847 426.389 613.903C426.389 613.956 426.345 614 426.291 614H102.333C45.8162 614 0 568.184 0 511.667C0 455.15 45.8162 409.333 102.333 409.333C139.009 409.333 171.178 428.627 189.245 457.618C196.272 468.894 207.727 477.556 221.013 477.556C241.338 477.556 256.207 458.358 255.86 438.036C255.842 436.998 255.833 435.958 255.833 434.917C255.833 357.654 304.762 291.819 373.324 266.707C393.364 259.367 409.333 241.797 409.333 220.455C409.333 209.231 404.638 198.662 398.031 189.588C383.685 169.886 375.222 145.626 375.222 119.389C375.222 53.4522 428.674 0 494.611 0Z" fill="white"/>
</svg>
